<svg width="126" height="21" viewBox="0 0 126 21" fill="none" xmlns="http://www.w3.org/2000/svg">
<path opacity="0.9" d="M28.51 7.286C28.3047 6.25 27.6653 5.732 26.592 5.732C25.7613 5.732 25.1407 6.054 24.73 6.698C24.3193 7.33267 24.1187 8.38267 24.128 9.848C24.3427 9.36267 24.6973 8.98467 25.192 8.714C25.696 8.434 26.256 8.294 26.872 8.294C27.8333 8.294 28.5987 8.59267 29.168 9.19C29.7467 9.78733 30.036 10.6133 30.036 11.668C30.036 12.3027 29.91 12.872 29.658 13.376C29.4153 13.88 29.042 14.2813 28.538 14.58C28.0433 14.8787 27.4413 15.028 26.732 15.028C25.7707 15.028 25.0193 14.8133 24.478 14.384C23.9367 13.9547 23.5587 13.362 23.344 12.606C23.1293 11.85 23.022 10.9167 23.022 9.806C23.022 6.38067 24.2167 4.668 26.606 4.668C27.5207 4.668 28.2393 4.91533 28.762 5.41C29.2847 5.90467 29.5927 6.53 29.686 7.286H28.51ZM26.606 9.372C26.2047 9.372 25.8267 9.456 25.472 9.624C25.1173 9.78267 24.828 10.03 24.604 10.366C24.3893 10.6927 24.282 11.094 24.282 11.57C24.282 12.2793 24.4873 12.858 24.898 13.306C25.3087 13.7447 25.8967 13.964 26.662 13.964C27.3153 13.964 27.8333 13.7633 28.216 13.362C28.608 12.9513 28.804 12.4007 28.804 11.71C28.804 10.982 28.6173 10.4127 28.244 10.002C27.8707 9.582 27.3247 9.372 26.606 9.372Z" fill="#030A1B"/>
<g opacity="0.5">
<path d="M15.0787 9.11829H1.26238C0.56632 9.11829 0 9.68461 0 10.3807V13.7534H16.3411V10.3807C16.3411 9.68461 15.7748 9.11829 15.0787 9.11829Z" fill="#030A1B"/>
<path d="M8.64929 6.15326H12.6982V8.16091H8.64929V6.15326Z" fill="#030A1B"/>
<path d="M2.68531 5.1959H8.17045H13.6556V8.16104H14.8515V4H1.48944V8.16104H2.68531V5.1959Z" fill="#030A1B"/>
<path d="M3.6427 6.15326H7.69162V8.16091H3.6427V6.15326Z" fill="#030A1B"/>
<path d="M0.510681 14.7111H15.8299V16.185H0.510681V14.7111Z" fill="#030A1B"/>
</g>
<path opacity="0.9" d="M69.714 13.978C70.8993 13.026 71.828 12.2467 72.5 11.64C73.172 11.024 73.7367 10.3847 74.194 9.722C74.6607 9.05 74.894 8.392 74.894 7.748C74.894 7.14133 74.7447 6.66533 74.446 6.32C74.1567 5.96533 73.6853 5.788 73.032 5.788C72.3973 5.788 71.9027 5.98867 71.548 6.39C71.2027 6.782 71.016 7.30933 70.988 7.972H69.756C69.7933 6.92667 70.1107 6.11933 70.708 5.55C71.3053 4.98067 72.0753 4.696 73.018 4.696C73.9793 4.696 74.74 4.962 75.3 5.494C75.8693 6.026 76.154 6.75867 76.154 7.692C76.154 8.46667 75.9207 9.22267 75.454 9.96C74.9967 10.688 74.474 11.332 73.886 11.892C73.298 12.4427 72.5467 13.0867 71.632 13.824H76.448V14.888H69.714V13.978Z" fill="#030A1B"/>
<g opacity="0.7">
<path d="M54.9174 8.51655L56.2119 10.5253L57.1195 9.48371L55.7655 7.89161C56.3458 7.04349 56.197 5.64483 55.334 4.49912C54.3222 3.14509 52.7003 2.62431 51.7183 3.3534C50.7363 4.08249 50.766 5.77875 51.7778 7.13277C52.6557 8.29336 53.9502 8.82902 54.9174 8.51655Z" fill="#030A1B"/>
<path d="M58.7717 11.4326L57.7897 12.9652L60.1704 16.6404C60.5126 17.1761 61.2417 17.31 61.7625 16.9231L61.8517 16.8487C62.3576 16.4618 62.4469 15.7328 62.0303 15.2417L58.7717 11.4326Z" fill="#030A1B"/>
<path d="M63.9209 4.60347C63.7869 4.43979 63.534 4.45467 63.415 4.61834C63.415 4.61834 61.7187 6.79073 61.2426 7.40079C61.1682 7.49006 61.0343 7.50494 60.945 7.44542C60.8557 7.37103 60.8259 7.25199 60.9003 7.14784L62.9388 4.27612C63.0281 4.15708 63.0281 3.97853 62.9239 3.8595C62.79 3.69582 62.5371 3.7107 62.418 3.87437C62.418 3.87437 60.7218 6.04676 60.2457 6.65682C60.1713 6.74609 60.0373 6.76097 59.9481 6.70145C59.8588 6.62706 59.829 6.50802 59.9034 6.40387C60.3647 5.76405 61.9568 3.51727 61.9568 3.51727C62.0758 3.3536 62.0163 3.11552 61.8229 3.02625C61.689 2.96673 61.5253 3.01137 61.4211 3.1304L59.1297 6.07652L58.8321 6.46339C58.5345 6.86513 58.4006 7.34127 58.4601 7.7579L58.594 8.6209L52.8952 15.2273C52.4786 15.7184 52.5679 16.4474 53.0738 16.8343L53.1631 16.9087C53.669 17.2956 54.3981 17.1617 54.7552 16.626L59.457 9.29047L60.3349 9.17144C60.7516 9.11192 61.1682 8.84409 61.4806 8.44234L61.7782 8.05548L63.9357 5.02009C64.025 4.90105 64.025 4.7225 63.9209 4.60347Z" fill="#030A1B"/>
</g>
<path opacity="0.9" d="M117.84 7.426C117.905 6.56733 118.237 5.89533 118.834 5.41C119.431 4.92467 120.206 4.682 121.158 4.682C121.793 4.682 122.339 4.79867 122.796 5.032C123.263 5.256 123.613 5.564 123.846 5.956C124.089 6.348 124.21 6.79133 124.21 7.286C124.21 7.86467 124.042 8.364 123.706 8.784C123.379 9.204 122.95 9.47467 122.418 9.596V9.666C123.025 9.81533 123.505 10.1093 123.86 10.548C124.215 10.9867 124.392 11.5607 124.392 12.27C124.392 12.802 124.271 13.2827 124.028 13.712C123.785 14.132 123.421 14.4633 122.936 14.706C122.451 14.9487 121.867 15.07 121.186 15.07C120.197 15.07 119.385 14.8133 118.75 14.3C118.115 13.7773 117.761 13.04 117.686 12.088H118.918C118.983 12.648 119.212 13.1053 119.604 13.46C119.996 13.8147 120.519 13.992 121.172 13.992C121.825 13.992 122.32 13.824 122.656 13.488C123.001 13.1427 123.174 12.6993 123.174 12.158C123.174 11.458 122.941 10.954 122.474 10.646C122.007 10.338 121.303 10.184 120.36 10.184H120.038V9.12H120.374C121.233 9.11067 121.881 8.97067 122.32 8.7C122.759 8.42 122.978 7.99067 122.978 7.412C122.978 6.91733 122.815 6.52067 122.488 6.222C122.171 5.92333 121.713 5.774 121.116 5.774C120.537 5.774 120.071 5.92333 119.716 6.222C119.361 6.52067 119.151 6.922 119.086 7.426H117.84Z" fill="#030A1B"/>
<g opacity="0.7">
<path d="M101.316 3C100.098 3 99.1053 3.99227 99.1053 5.21053V10.9211H99.8421V5.21053C99.8421 4.38773 100.493 3.73684 101.316 3.73684C102.01 3.73684 102.582 4.20307 102.743 4.84211H103.492C103.315 3.79946 102.408 3 101.316 3ZM103.158 5.21053C102.341 5.21053 101.684 5.86779 101.684 6.68421H104.632C104.632 5.86779 103.974 5.21053 103.158 5.21053ZM102.053 7.42105C101.849 7.42105 101.684 7.586 101.684 7.78947V8.1579C101.684 8.36137 101.849 8.52632 102.053 8.52632C102.256 8.52632 102.421 8.36137 102.421 8.1579V7.78947C102.421 7.586 102.256 7.42105 102.053 7.42105ZM104.263 7.42105C104.06 7.42105 103.895 7.586 103.895 7.78947V8.1579C103.895 8.36137 104.06 8.52632 104.263 8.52632C104.467 8.52632 104.632 8.36137 104.632 8.1579V7.78947C104.632 7.586 104.467 7.42105 104.263 7.42105ZM103.158 8.71053C102.954 8.71053 102.789 8.87549 102.789 9.07895V9.44737C102.789 9.65085 102.954 9.81579 103.158 9.81579C103.361 9.81579 103.526 9.65085 103.526 9.44737V9.07895C103.526 8.87549 103.361 8.71053 103.158 8.71053ZM98 11.2895C98 13.8408 100.054 15.8947 102.605 15.8947H107.395C109.946 15.8947 112 13.8408 112 11.2895H98ZM101.73 16.2632C101.873 16.8995 102.371 17.3684 102.974 17.3684H107.026C107.629 17.3684 108.127 16.8995 108.27 16.2632H101.73Z" fill="#030A1B"/>
</g>
</svg>
